<svg id="Camada_1" data-name="Camada 1" xmlns="http://www.w3.org/2000/svg" viewBox="0 0 704.34 787.66"><defs><style>.cls-1{fill:#68acbc;}.cls-2{fill:#1f4a6c;}.cls-3{fill:#edc09a;}.cls-4{fill:#65adbe;}.cls-5{fill:#1f4665;}.cls-6{fill:#183b57;}.cls-7{fill:#6bb0bf;}.cls-8{fill:#df8638;}.cls-9{fill:#6cb0be;}.cls-10{fill:#1f4667;}.cls-11{fill:#ef9a48;}.cls-12{fill:#e68d3e;}.cls-13{fill:#265478;}.cls-14{fill:#35869b;}.cls-15{fill:#e68c3d;}.cls-16{fill:#ebc19e;}.cls-17{fill:#6cb0bf;}.cls-18{fill:#e68a3b;}.cls-19{fill:#e58d3e;}.cls-20{fill:#e58c3e;}.cls-21{fill:#e28c3f;}.cls-22{fill:#4f99ab;}.cls-23{fill:#4f9bae;}.cls-24{fill:#4f99ac;}.cls-25{fill:#4e9bac;}.cls-26{fill:#4f9db0;}.cls-27{fill:#4f98a9;}.cls-28{fill:#509cac;}.cls-29{fill:#509dad;}.cls-30{fill:#163e58;}.cls-31{fill:#17405a;}.cls-32{fill:#1e435d;}.cls-33{fill:#193f57;}.cls-34{fill:#153b55;}.cls-35{fill:#1c435e;}.cls-36{fill:#16405d;}.cls-37{fill:#143d58;}.cls-38{fill:#fefefe;}.cls-39{fill:#fdfefe;}.cls-40{fill:#fefefd;}</style></defs><path class="cls-1" d="M887,464.26c-.35,57.87-10.5,106.91-33.8,152.87-4.26,8.4,4,7.52,7.17,10.32,2.72,2.43,8.49,2.64,8.31,6.6-.09,2.09-5.35,4.2-8.52,5.84-11.83,6.1-23.84,11.85-35.61,18.05-5.2,2.74-7.2,1.71-7.87-4.18-1.72-15.19-3.91-30.33-5.79-45.5-.21-1.7.33-3.48.52-5.22,1.57.34,3.48.23,4.67,1.1,12.2,8.85,16.32,1.82,20.74-9,61.71-151.41,8.39-319.55-131.46-403.73-151.06-90.92-360.48-51.14-455,117.33C193.46,410,192.6,514.06,245.6,618c2.52,5,2.17,6.16-3.71,6-23.31-.56-23.32-.39-32.31-22.13C149.33,456.11,192.43,290.68,316.52,193c57.57-45.33,123.58-68.47,196.53-72.39,94.44-5.07,179.1,20.7,251.46,82.26C834.79,262.62,874.94,339,884.7,431,886.11,444.18,886.55,457.5,887,464.26Z" transform="translate(-182.66 -119.94)"/><path class="cls-2" d="M493.45,289.39c0-13.79.12-27.59.06-41.38,0-2.58.37-4.45,3.14-5.41q32.58-11.26,65.11-22.65c6.18-.37,7.41.76,7.74,7.11.08,1.5,0,3,.06,4.49q0,91,0,181.91c0,2.59,1.18,5.94-2.81,7.06-19.37-5.7-38.69-11.6-58.16-16.95-4.34-1.2-9.19-.5-13.81-.67-3.47.49-3.37-2.14-3.31-4.19,1-34.21.1-68.43.42-102.65C491.88,293.71,492,291.4,493.45,289.39Z" transform="translate(-182.66 -119.94)"/><path class="cls-3" d="M393.65,455.68c16.7,1.57,30.41-6.77,44.51-13.62q26.63-12.92,53-26.4c7.63-3.92,14.94-3.11,22.6-.49,18.55,6.32,37.22,12.27,55.69,18.78,4.63,1.63,10.75,3.66,10,10.11-.74,6.11-6.18,7.72-11.79,8.79-11.07,2.11-22.16.6-32.64-1.75-16.43-3.67-31.05-.56-45.54,6.6a112.27,112.27,0,0,1-15.57,6.68c-13.89,4.39-19.12,14.2-19.05,28.05.14,26,0,52,0,78a40.34,40.34,0,0,1-.82,5.73c-1.92-.75-4.1-1.15-5.74-2.3-14.11-10-28.34-19.84-42.06-30.35-6.07-4.64-12.1-7.15-19.62-5.74-3.2-1.09-3.23-4-3.51-6.55a161.14,161.14,0,0,1,2.86-55,125.87,125.87,0,0,1,4.23-15.38C390.84,458.83,391.32,456.61,393.65,455.68Z" transform="translate(-182.66 -119.94)"/><path class="cls-4" d="M458.75,418.83c-18.4,9.16-36.63,18.66-55.28,27.25-5.54,2.55-10.9,2.38-10.81-7.34.44-45.95.17-91.91.12-137.86,0-3,0-5.43,3.67-6.59,20.4-6.53,40.73-13.25,61.1-19.87a7,7,0,0,1,2.22.07c1.76,2.07,1.82,4.58,1.82,7.09q0,64,0,128C461.6,412.94,461.26,416.21,458.75,418.83Z" transform="translate(-182.66 -119.94)"/><path class="cls-5" d="M740.76,470.86c.23,19.64-3.52,38.61-8.79,57.46-2.24,8-6.18,11.61-14.49,12.52-13.86,1.51-27.61,4.14-41.39,6.4-6.73,1.11-10.28.79-7.82-8.16,10.27-37.37,3.25-72.77-14-106.59-2.33-4.54-1.13-6.14,3-6.77,23.8-3.64,47.63-7.15,71.45-10.71,4.74-.7,5,3.16,5.69,6C738.1,437.41,741.26,453.91,740.76,470.86Z" transform="translate(-182.66 -119.94)"/><path class="cls-6" d="M566.72,420.52c2.55-2.19.9-5,.9-7.45.11-61.85,0-123.7.2-185.55,0-4.75-1.08-7.4-6.06-7.57,10.56-4.87,17.92,3.33,26,7,15.59,7,30.63,15.23,45.9,22.94.86,1.39.46,2.92.46,4.39,0,25-.11,49.94.14,74.9,0,4.79-1.86,7-6.07,8.23-12,3.47-23.6,8.12-35.64,11.49-6.8,1.9-7.11,2.41-7.12,9.31q-.06,28.21,0,56.43c0,3,0,6,1.8,8.65.48.71,1.47,2.14-.63,2.47C579.35,426.48,573.38,422.19,566.72,420.52Z" transform="translate(-182.66 -119.94)"/><path class="cls-7" d="M748.31,718.73c0,12.66,1.3,25.48-.26,37.95C744.57,784.4,720,799.52,689.3,794.2A82.53,82.53,0,0,1,664,785.57c-4.22-2.28-4.16-4.14-2-8.44,4.46-9,8.6-13.11,19-6.52,8,5.07,18,4.41,27.24,2.18,11.44-2.76,15-11.53,15.56-22.2a9.3,9.3,0,0,0-.28-1.86c-.61.47-1.26.91-1.84,1.41-15.73,13.49-40.58,12.47-55.41-2.29s-15.47-40.17-1.52-56.46c13.62-15.9,37.66-18.35,55.12-5.64a37,37,0,0,0,3.63,2.07,21.67,21.67,0,0,0,.32-3.92c-.33-3.44,1-4.54,4.53-4.61,20.37-.35,20.37-.44,20.4,20q0,9.75,0,19.49Z" transform="translate(-182.66 -119.94)"/><path class="cls-8" d="M509.7,467.72l84.43,10.74c3.39.43,4.77,2.35,4.72,5.78q-.24,16-.16,31.93a8.73,8.73,0,0,1-4,7.53q-34,25.23-68.07,50.47c-5.28,3.91-11.17,2-16.88,1.39-2-2-1.85-4.55-1.86-7q-.08-46.89,0-93.78C507.87,472.28,507.76,469.72,509.7,467.72Z" transform="translate(-182.66 -119.94)"/><path class="cls-9" d="M218.77,708.12c0-16.49.15-33-.1-49.46-.07-4.27,1.28-5.28,5.35-5.24,23,.2,46,.69,68.93-.11,9.71-.34,12.48,1.92,12.23,11.92-.23,8.73-2.25,11.14-10.93,10.66-14.44-.78-29-.09-43.45-.28-3.75-.05-4.41,1.29-4.94,4.81-2,13.35,1.64,20,16.68,17.3,7.26-1.29,15,.47,22.42-.43,9.49-1.15,12.2,1.82,12,11.54-.16,8.71-2.09,11.45-10.94,10.74-10.92-.87-22,.07-33-.32-5.21-.18-6.13,1.43-6.84,6.54-1.85,13.14,2.3,17.74,15.9,16.14,12-1.41,24.28,0,36.43-.43,5-.15,5.84,1.35,6.55,6.22,2,13.43-2.56,17.27-16.19,16.39-21.56-1.39-43.28-.49-64.92-.32-4.06,0-5.42-.92-5.36-5.21C218.93,741.76,218.78,724.94,218.77,708.12Z" transform="translate(-182.66 -119.94)"/><path class="cls-10" d="M393.65,455.68c-8.95,26.79-13.89,53.92-7.13,82.07-.11,4.32-3.37,3.57-5.78,3.2-14.94-2.28-29.83-4.9-44.78-7.09-4.43-.65-6.22-3-7-7-5.13-25-3.31-49.52,3.89-73.84,1.41-4.73,3.48-6.53,8.92-5.56C359,450.58,376.33,453,393.65,455.68Z" transform="translate(-182.66 -119.94)"/><path class="cls-7" d="M320,721.73c0-12.48.11-25-.07-37.46-.06-3.61.86-5.13,4.72-4.85a68.89,68.89,0,0,0,13.47,0c6.18-.76,9.09,1,7.86,7.6a8,8,0,0,0,.51,2.68,9.36,9.36,0,0,0,1.52-1.1c11-11.84,24.45-13.75,38.78-8.15,15.44,6,20.07,19.6,20.67,34.66s.16,30,.3,44.94c0,2.91-1.15,3.55-3.85,3.67-22.17.95-22.09,1-22.18-21.22,0-9.13,0-18.32-.87-27.39-.89-8.87-5.45-14.83-15.48-14.78-10.5,0-17.34,5.6-18.31,15.41-1.38,14-1,28.24-1,42.37,0,4.7-1.37,5.78-5.89,5.72-20.39-.27-20.39-.13-20.34-20.62,0-7.16,0-14.32,0-21.48Z" transform="translate(-182.66 -119.94)"/><path class="cls-7" d="M612.82,728.82c-8.83,0-17.66.21-26.49-.08-4.82-.15-4.8,1.57-3.13,5.17,5.54,12,23.8,15.47,37.16,7,10.14-6.42,12.58,5.4,18.13,8.8,2.83,1.73-3.3,5.54-6.07,7.41-18.06,12.2-46,10.6-62-3.28-14.59-12.61-18.63-34.61-9.73-53,9.14-18.87,32.71-27.92,54.83-21,19.41,6,31.31,25.5,28.45,46.17-.41,3-2,2.92-4.1,2.92q-13.5,0-27,0Z" transform="translate(-182.66 -119.94)"/><path class="cls-7" d="M843.66,737.05c0,2.5,0,5,0,7.5.05,20.77.05,20.78-20.75,19-1-.09-2.82-.75-2.83-1.17-.27-12.55-5.82-2.1-7.31-1.2-12.34,7.39-32.6,5.42-42.39-4.62a24.39,24.39,0,0,1-2.42-31.61c6.84-9.76,17.59-11.2,28.35-12,4.8-.37,9.67.11,14.48-.19,2.45-.16,6.39,1.76,7.07-1.21.73-3.22-1.17-7-4.28-9.06-10.59-6.86-21.55-5-31.67.53-4.87,2.65-5.56,1-8.31-2.45-7.89-9.88-3.89-14.25,6.12-18.39,24.38-10.09,52-2.76,60.42,16.92C845.38,711.28,843.18,724.31,843.66,737.05Z" transform="translate(-182.66 -119.94)"/><path class="cls-11" d="M509.7,467.72q0,53.92,0,107.84l-40.88-1.82c-3.92-.17-5-2.72-5-6.09q0-40.47,0-80.93c0-6,2.54-10.27,8.78-11.55C485,472.65,497.36,470.2,509.7,467.72Z" transform="translate(-182.66 -119.94)"/><path class="cls-12" d="M366.76,852.63c0-15.65.08-31.31-.06-47,0-3.45.55-5,4.56-4.94,23,.18,46-.6,68.93.33,10.84.44,2.59,10.24,5,15.3,1.74,3.62-1.5,4.33-4.8,4.3-14.66-.16-29.31,0-44-.22-4.16-.07-5.75.79-5.71,5.41.18,20.85,0,20.85,20.95,20.93,4,0,8.1.64,12,0,12-2.14,15.66,2.74,14.25,14.31-.58,4.69-1.36,6.15-6.17,6-12.31-.36-24.64,0-37-.27-3.49-.07-4.17,1.18-4.12,4.31.14,8.65-.52,17.35.1,26,.49,6.79-2.09,7.4-8.23,8.17-13.43,1.67-17.47-2.87-16-16.15,1.33-12,.28-24.28.28-36.44Z" transform="translate(-182.66 -119.94)"/><path class="cls-13" d="M586.63,425.74c-4-4.4-2.89-9.81-2.91-15,0-18.49.14-37-.13-55.45-.06-4.35,1.48-6.13,5.43-7.34,13.47-4.15,26.77-8.88,40.29-12.84,3.9-1.14,4.35-3,4.34-6.35,0-26.31,0-52.62.05-78.93.28,15.52.63,31,.83,46.56.17,12.61.17,25.22.25,37.83,1.59,2.12,1.76,4.59,1.76,7.12q0,37.64,0,75.27c0,.33,0,.66,0,1-.32,8.07-1.07,8.93-8.79,9.94Z" transform="translate(-182.66 -119.94)"/><path class="cls-14" d="M458.75,418.83c.32-31.12.7-62.24.95-93.36.13-17,.05-34,.07-51l33.68,14.9q-.27,54.75-.56,109.51c0,1.7-.34,3.39,1.86,4Z" transform="translate(-182.66 -119.94)"/><path class="cls-15" d="M524.53,877.75c0,4,0,8,0,12,.11,16-2.21,17.87-18.52,15.08-.76-.13-2.08-.47-2.11-.81-1.21-11.75-5.89-1.82-7.86-.86-12.59,6.15-24.87,6.18-36.5-1.6-8.28-5.53-11.11-14-8.83-23.67,3-12.84,12.83-17.58,24.59-19.11,6.74-.87,13.63-.55,20.43-1,1.95-.13,5.1,1.41,5.61-1.27.4-2.07-.84-4.95-2.25-6.78-5.69-7.34-21.1-8-32.94-1.3-3.3,1.87-5.91,2.26-6.6-1.73-.82-4.73-11.42-8.4-2.75-13.94,15.4-9.82,32.39-11.31,49.27-4.61,14.82,5.88,18.34,19.06,18.36,33.6,0,5.33,0,10.66,0,16Z" transform="translate(-182.66 -119.94)"/><path class="cls-16" d="M489.8,585.74c12.68,1.52,27.87,3.08,43,5.31,4.16.62,7.21-.85,10.23-2.63,18.14-10.73,36.13-21.72,54.3-32.41,2.27-1.33,5.33-4.87,7.77-1.85,2.27,2.8.12,6.33-2.31,8.88a226.93,226.93,0,0,1-30.91,26.66c-1.73,1.25-2.87,3.33-4.28,5,2.55,2,5.25,1.06,7.43-.28,14.82-9.16,29.46-18.63,44.33-27.72,4.14-2.53,9.19-8.93,13.63-2.68,3.95,5.56-2.47,9.23-6.52,12.38A489.94,489.94,0,0,1,567,615.71c-14.12,8-27.69,5.23-41.71.68-13.26-4.31-26.7-8.08-39.91-12.52-5.21-1.75-11.11-4.62-10.21-11.21C476,586.47,481.77,585.49,489.8,585.74Z" transform="translate(-182.66 -119.94)"/><path class="cls-17" d="M428.82,719.57c0-3.67-.42-7.39.08-11,1-6.84-.9-10.45-8.51-9-2.77.52-4.21-.79-3.71-3.61,1.23-6.88-5.6-18.41,10.49-16.89,3.32.32.92-6,1.66-9.17.83-3.54-2.05-9.7,1.44-10.34,7.53-1.37,15.6-.83,23.19.47,1.11.19,1.21,8.86,1,13.57s1.08,6.87,6,6.09a34.55,34.55,0,0,1,5-.06c9.49-.07,16.09,10.57,10.57,18.56-2.88,4.16-9.37,1.6-14.09,1.37-5.9-.29-7.78,1.36-7.36,7.34.55,8,0,16,.17,24,.23,11,6.29,15.62,16.8,12.21,4.2-1.37,5.55.49,5.53,3.45,0,5.1,9.69,10.67.8,15-26.75,13-49.05-1.39-49.06-30.92C428.82,726.9,428.83,723.24,428.82,719.57Z" transform="translate(-182.66 -119.94)"/><path class="cls-18" d="M585,824.41c8.17.17,19.4,5.84,27.56,17.48,1.64,2.33,1.5,3.68-1.2,4.92-7,3.2-12.69,9.29-21.29.47-7.15-7.33-20.63-4-26.64,4.05-6.54,8.72-4.93,23.61,3.35,31,7.31,6.51,20,6.13,27.43-.82,3.52-3.28,18.28-.21,19.93,4.36.35,1-.87,2.65-1.67,3.78a41.2,41.2,0,0,1-50.67,13.68C542.91,895,532.82,876,537,856.59,541,837.6,558.36,824.31,585,824.41Z" transform="translate(-182.66 -119.94)"/><path class="cls-6" d="M627.72,427.58c6.93-.42,7-5.38,7-10.46q0-41.43.09-82.86,17.49,7.15,35,14.29c3,1.22,4.11,3.19,4.08,6.51q-.23,26.73,0,53.47c0,3.32-1,5.2-4.32,6.14-9.67,2.68-21.61.07-27.19,12.84C641.56,429.32,632.79,427.64,627.72,427.58Z" transform="translate(-182.66 -119.94)"/><path class="cls-7" d="M494.67,721.6c0-12.33.2-24.66-.1-37-.1-4.31,1.3-5.52,5.37-5.15a45.75,45.75,0,0,0,11,0c6.95-1.05,10.39,1,9,8.5a9.33,9.33,0,0,0,.39,2.81c.83-.67,1.72-1.27,2.48-2,2.15-2.06,4-4.58,6.42-6.18,6.46-4.28,15.17-8.25,20.8-3.32,5.23,4.57,1.24,14.07,1.58,21.39.12,2.56-2.07,1.32-3.37,1.21-18.71-1.6-28.21,7.06-28.31,25.87,0,10.33-.19,20.66.06,31,.09,3.95-1.11,5-5.06,5-20.23,0-20.23.1-20.25-20.16Q494.65,732.59,494.67,721.6Z" transform="translate(-182.66 -119.94)"/><path class="cls-19" d="M667.56,852.47c0-15.33.18-30.65-.11-46-.09-4.7,1.24-5.52,5.94-6.22,14.58-2.16,18.08,3.52,17.43,17.61-1.23,26.76-.5,53.62-.21,80.43.06,5.3-1.57,6-6.56,6.72-13.71,2-18.65-2.35-16.86-16.64,1.49-11.8.31-23.94.31-35.93Z" transform="translate(-182.66 -119.94)"/><path class="cls-20" d="M624.9,864.6c0-11.16.27-22.33-.1-33.48-.18-5.17,1.64-5.64,6.44-6.31,14.52-2,16.81,4.41,16,17.28-1.2,19.08-.44,38.3,0,57.45.09,4.69-1.53,4.77-5.47,5.41-13.94,2.26-19.3-2.56-17.05-16.9C625.88,880.41,624.89,872.43,624.9,864.6Z" transform="translate(-182.66 -119.94)"/><path class="cls-12" d="M634.82,816.72c-8.17-1.13-14-5.05-13.88-13.91s5.9-13.78,14.49-13.67,14.3,4.9,14.2,14C649.52,812.33,643.27,815.86,634.82,816.72Z" transform="translate(-182.66 -119.94)"/><path class="cls-21" d="M504.12,794.15l11.75,1.07c-2.56,3-5.17,5.88-7.67,8.9-7.69,9.26-15.83,17.54-29.55,14.44-1.06-.24-2.14-.4-3.21-.6a18,18,0,0,1,1.46-3c4.31-5.89,8.78-11.67,13-17.6C493.87,791.86,499.59,796,504.12,794.15Z" transform="translate(-182.66 -119.94)"/><path class="cls-22" d="M549.58,261c1.6,7-1.6,10.95-8.24,11.39-5.24.35-4.33-4.13-4.64-7.56-.65-6.93,0-13.22,8.95-12.81C551.6,252.27,549,257.73,549.58,261Z" transform="translate(-182.66 -119.94)"/><path class="cls-23" d="M537.43,365.62c-2-9,.49-13.49,8-12.94,8,.59,3.42,7.19,4.17,11,1.17,6-2.19,9.05-8.13,9.13C533.79,372.91,538.07,366.81,537.43,365.62Z" transform="translate(-182.66 -119.94)"/><path class="cls-24" d="M536.86,296.75c-1.68-7.12,1.53-10.95,8.25-10.92,6.28,0,4,5.53,4.58,9.08,1.07,6.76-1.46,11.51-8.57,11.36C534.52,306.13,537.52,300.19,536.86,296.75Z" transform="translate(-182.66 -119.94)"/><path class="cls-25" d="M537.73,333.37c-2.37-10.35.77-14.22,7.74-13.62,7.42.63,3.38,6.94,4.11,10.69,1.19,6.16-2.38,9.21-8.14,9.13C534.35,339.48,537.8,333.55,537.73,333.37Z" transform="translate(-182.66 -119.94)"/><path class="cls-26" d="M522.16,298.47c1.9,8.31-.72,13.12-7.81,12.91-6.7-.2-3.61-6.63-4.26-10.2-1.2-6.59,2.36-10.61,9-10.27S521.07,297.05,522.16,298.47Z" transform="translate(-182.66 -119.94)"/><path class="cls-27" d="M522.63,267.51c1.46,7-1.91,10.74-8.33,10.59-6.67-.16-3.8-6.05-4.41-9.67-1.21-7.2,3-10.67,9.26-10.16C524.75,258.72,521.89,264.3,522.63,267.51Z" transform="translate(-182.66 -119.94)"/><path class="cls-28" d="M511.46,370.65c-2.43-8.64.53-12.82,7.91-12.74,5.41,0,3.15,4.87,3.34,7.7.39,6.06,1.41,13.07-8,13C506.91,378.57,512.75,372.13,511.46,370.65Z" transform="translate(-182.66 -119.94)"/><path class="cls-29" d="M511.42,337.81c-1.93-8.58,0-13.22,7.59-13,6.27.18,3.19,5.37,3.64,8.39.89,6.11-.29,12-7.77,12.17C507.65,345.56,512.1,339.14,511.42,337.81Z" transform="translate(-182.66 -119.94)"/><path class="cls-30" d="M418.52,399.44c.74,5.21.34,9.93-5.26,9.65-5.09-.25-2.65-5.32-3.15-8.32-.73-4.32.81-7.86,5.65-7.8C421.32,393,417.49,397.85,418.52,399.44Z" transform="translate(-182.66 -119.94)"/><path class="cls-31" d="M429.84,344.74c-.28-5-1-10.17,5.4-9.19,5.25.81,1.75,5.74,2.38,8.71.79,3.68-.09,7.43-4.89,7.32C426.49,351.44,431.7,346.13,429.84,344.74Z" transform="translate(-182.66 -119.94)"/><path class="cls-32" d="M429.61,398.62c.21-4.25-1.23-9.2,4.81-8.82,6.67.41,2.43,5.82,3.19,8.83.92,3.7-.11,7.34-5,7C426.51,405.3,431.65,400.15,429.61,398.62Z" transform="translate(-182.66 -119.94)"/><path class="cls-33" d="M410.57,375.54c0-4.57-.83-10.14,5.3-9.31,5.88.79,1.85,6.46,2.75,9.82,1.19,4.44-1.93,6.34-5.56,6.06C408.08,381.72,411.7,377.33,410.57,375.54Z" transform="translate(-182.66 -119.94)"/><path class="cls-34" d="M418.6,346.31c.42,4.69.78,9.47-5,9.19-6.14-.3-2.38-5.62-3-8.56-.85-3.8-.12-7.68,5.22-7.34C421.51,340,417.34,344.63,418.6,346.31Z" transform="translate(-182.66 -119.94)"/><path class="cls-35" d="M430.05,317.75c-1-5.39-.53-9.69,5.28-9.44,4.61.19,2,4.37,2.34,6.68.58,4.26.91,9.45-5.26,9.34C427.14,324.23,431.08,319.27,430.05,317.75Z" transform="translate(-182.66 -119.94)"/><path class="cls-36" d="M429.78,371.81c-.29-4.62-.62-8.89,5.38-9,4.18-.07,2.64,3.29,2.52,5.11-.26,4.14,2.45,10.41-5.14,10.57C426.69,378.64,431.41,373.47,429.78,371.81Z" transform="translate(-182.66 -119.94)"/><path class="cls-37" d="M418.58,319.16c.49,4.77.61,9.16-5.14,9.15-4.77,0-2.66-4.2-2.69-6.48-.07-3.71-2-9.07,4.83-9.12C421.49,312.67,417.33,317.55,418.58,319.16Z" transform="translate(-182.66 -119.94)"/><path class="cls-38" d="M702.22,698.63c12,.07,21.22,9,21.29,20.45S714,739.6,701.69,739.52c-11.58-.08-20.82-9.1-20.82-20.35C680.86,706.94,689.59,698.55,702.22,698.63Z" transform="translate(-182.66 -119.94)"/><path class="cls-39" d="M600.17,713.57c-3.15,0-6.33.23-9.45-.06-3-.28-7.63,1.79-8.41-1.23-.64-2.49,2.13-6.43,4.28-9,8.92-10.56,27.1-7.87,31.81,4.48,1.44,3.77,1.61,6.28-3.81,5.82-4.78-.4-9.61-.08-14.42-.08Z" transform="translate(-182.66 -119.94)"/><path class="cls-39" d="M808.52,727.36c2.69,2.71,9.81-4.38,10,4.62.21,11.08-6.61,15.23-16.48,15.56-6.56.22-13.91-.5-13.33-9.31C789.53,725.56,800.26,728.73,808.52,727.36Z" transform="translate(-182.66 -119.94)"/><path class="cls-40" d="M491.73,871.43c2.5,2.61,9.52-4.42,10,4.11.67,11.34-7,15.11-16.43,15.76-6.44.45-12.92-2-12.48-9.62C473.54,870,483.35,872,491.73,871.43Z" transform="translate(-182.66 -119.94)"/></svg>